<?xml version="1.0" encoding="utf-8"?>
<!-- Generator: Adobe Illustrator 25.0.0, SVG Export Plug-In . SVG Version: 6.00 Build 0)  -->
<svg version="1.1" id="Ebene_1" xmlns="http://www.w3.org/2000/svg" xmlns:xlink="http://www.w3.org/1999/xlink" x="0px" y="0px"
	 viewBox="0 0 80 80" style="enable-background:new 0 0 80 80;" xml:space="preserve">
<g id="Annotate_Serie">
	<g id="Combined-Shape">
		<path d="M73,42.5h-8.5V24c0-0.3-0.2-0.5-0.5-0.5l-0.1,0l-44.4,0V7c0-3,2.5-5.5,5.5-5.5h48c3,0,5.5,2.5,5.5,5.5v30
			C78.5,40,76,42.5,73,42.5z M69.5,37.5H73c0.3,0,0.5-0.2,0.5-0.5V7c0-0.3-0.2-0.5-0.5-0.5H25c-0.3,0-0.5,0.2-0.5,0.5v11.5l39.7,0
			c3,0.2,5.3,2.6,5.3,5.5V37.5z"/>
	</g>
	<g id="Combined-Shape-Copy">
		<path d="M64,59.5h-8.5V43c0-0.3-0.2-0.5-0.5-0.5l-0.1,0l-44.4,0V24c0-3,2.5-5.5,5.5-5.5h48c3,0,5.5,2.5,5.5,5.5v30
			C69.5,57,67,59.5,64,59.5z M60.5,54.5H64c0.3,0,0.5-0.2,0.5-0.5V24c0-0.3-0.2-0.5-0.5-0.5H16c-0.3,0-0.5,0.2-0.5,0.5v13.5l39.7,0
			c3,0.2,5.3,2.6,5.3,5.5V54.5z"/>
	</g>
	<g id="Rectangle">
		<path d="M55,78.5H7c-3,0-5.5-2.5-5.5-5.5V43c0-3,2.5-5.5,5.5-5.5h48c3,0,5.5,2.5,5.5,5.5v30C60.5,76,58,78.5,55,78.5z M7,42.5
			c-0.3,0-0.5,0.2-0.5,0.5v30c0,0.3,0.2,0.5,0.5,0.5h48c0.3,0,0.5-0.2,0.5-0.5V43c0-0.3-0.2-0.5-0.5-0.5H7z"/>
	</g>
</g>
</svg>
