<?xml version="1.0" encoding="utf-8"?>
<!-- Generator: Adobe Illustrator 25.0.0, SVG Export Plug-In . SVG Version: 6.00 Build 0)  -->
<svg version="1.1" id="Ebene_1" xmlns="http://www.w3.org/2000/svg" xmlns:xlink="http://www.w3.org/1999/xlink" x="0px" y="0px"
	 viewBox="0 0 80 80" style="enable-background:new 0 0 80 80;" xml:space="preserve">
<g id="Annotate_Video">
	<g id="Rectangle">
		<path d="M73,66.5H7c-3,0-5.5-2.5-5.5-5.5V19c0-3,2.5-5.5,5.5-5.5h66c3,0,5.5,2.5,5.5,5.5v42C78.5,64,76,66.5,73,66.5z M7,18.5
			c-0.3,0-0.5,0.2-0.5,0.5v42c0,0.3,0.2,0.5,0.5,0.5h66c0.3,0,0.5-0.2,0.5-0.5V19c0-0.3-0.2-0.5-0.5-0.5H7z"/>
	</g>
	<path id="_x31_" d="M44.1,52.8V27.2h-4.5l-8.3,6.6L34,37l3-2.4c0.4-0.3,1-0.9,1.9-1.8l0,0l-0.1,2.7L38.7,38v14.9H44.1z"/>
</g>
</svg>
